<?xml version="1.0" encoding="utf-8"?>
<!-- Generator: Adobe Illustrator 16.0.0, SVG Export Plug-In . SVG Version: 6.00 Build 0)  -->
<!DOCTYPE svg PUBLIC "-//W3C//DTD SVG 1.1//EN" "http://www.w3.org/Graphics/SVG/1.1/DTD/svg11.dtd">
<svg version="1.1" id="图层_1" xmlns="http://www.w3.org/2000/svg" xmlns:xlink="http://www.w3.org/1999/xlink" x="0px" y="0px"
	 width="200px" height="200px" viewBox="0 0 200 200" enable-background="new 0 0 200 200" xml:space="preserve">
<g>
	<path fill="#C52128" d="M114.625,126.283c-0.896-1.141-1.91-1.957-3.038-2.451c-1.131-0.494-2.301-0.742-3.517-0.742
		c-1.287,0-2.455,0.229-3.502,0.686c-1.047,0.458-2.054,1.275-3.025,2.45c-0.859,1.084-1.553,2.522-2.087,4.314
		c-0.531,1.793-0.796,3.931-0.796,6.413c0,2.559,0.25,4.684,0.754,6.373c0.507,1.689,1.197,3.104,2.075,4.244
		c0.896,1.156,1.912,1.983,3.052,2.478c1.141,0.495,2.316,0.744,3.529,0.744c1.234,0,2.428-0.267,3.586-0.802
		c1.158-0.53,2.156-1.356,2.998-2.477c0.896-1.215,1.586-2.629,2.072-4.242c0.486-1.617,0.729-3.73,0.729-6.346
		c0-2.482-0.259-4.598-0.772-6.344C116.172,128.836,115.484,127.402,114.625,126.283z M128.033,44.147
		c17.666,41.386-7.367,44.816-10.898,44.816c-34.177,0.598-11.42-72.779-4.848-76.961c-2.986,0.597-25.794,0.518-42.953,28.275
		c-17.162,30.28,8.424,58.296-12.96,64.857c-15.645,6.562-9.978-30.54-8.463-37.605c-8.578-0.504-63.924,118.938,57.714,118.938
		C219.695,186.469,163.365,46.167,128.033,44.147z M86.007,160.482H75.083v-21.176H60.826v21.176H50.125v-46.637h10.701v17.953
		h14.257v-17.953h10.924V160.482z M122.861,152.862c-3.604,3.865-8.541,5.798-14.818,5.798c-6.295,0-11.232-1.955-14.818-5.867
		c-3.586-3.91-5.377-9.191-5.377-15.84c0-6.703,1.791-12,5.377-15.895c3.586-3.894,8.523-5.839,14.818-5.839
		c6.277,0,11.214,1.937,14.818,5.81c3.604,3.877,5.405,9.184,5.405,15.924C128.267,143.695,126.465,148.998,122.861,152.862z
		 M148.93,124.713v35.993h-10.479v-35.993h-12.772V114.07h35.575v10.643H148.93z"/>
	<rect x="45.5" y="112" fill="#C52128" width="117.496" height="51.481"/>
</g>
</svg>
